<svg width="38" height="38" viewBox="0 0 38 38" fill="none" xmlns="http://www.w3.org/2000/svg">
<path d="M24.047 20.5832C23.1605 20.5832 22.4439 21.2927 22.4439 22.1665V28.5C22.4439 29.3724 21.7256 30.0832 20.8406 30.0832H16.0312V6.33324C16.0312 4.98106 15.1591 3.77298 13.8478 3.32332L13.3732 3.16647H20.8406C21.7256 3.16647 22.4439 3.87735 22.4439 4.75V9.5C22.4439 10.3738 23.1605 11.0832 24.047 11.0832C24.9335 11.0832 25.65 10.3738 25.65 9.5V4.75C25.65 2.13118 23.4922 0 20.8406 0H3.60705C3.54599 0 3.49491 0.0269623 3.43562 0.03479C3.35841 0.0284119 3.28474 0 3.20636 0C1.43806 0 0 1.42001 0 3.16647V31.6665C0 33.0186 0.872114 34.2267 2.18337 34.6764L11.8312 37.8527C12.1582 37.9525 12.4835 38 12.8251 38C14.5934 38 16.0312 36.5797 16.0312 34.8332V33.25H20.8406C23.4922 33.25 25.65 31.1188 25.65 28.5V22.1665C25.65 21.2927 24.9335 20.5832 24.047 20.5832Z" fill="#046CBB"/>
<path d="M37.5442 14.5333L31.326 8.07359C30.8817 7.6117 30.2131 7.47272 29.6319 7.72289C29.052 7.97335 28.6726 8.56269 28.6726 9.21531V14.0601H22.4547C21.5965 14.0601 20.9 14.7834 20.9 15.675C20.9 16.5665 21.5965 17.2898 22.4547 17.2898H28.6726V22.1346C28.6726 22.7873 29.052 23.3766 29.6319 23.6271C30.2131 23.8772 30.8817 23.7382 31.326 23.2766L37.5442 16.8167C38.1519 16.1854 38.1519 15.1646 37.5442 14.5333Z" fill="#046CBB"/>
</svg>
