<svg width="18" height="13" viewBox="0 0 18 13" fill="none" xmlns="http://www.w3.org/2000/svg">
<path d="M14.7426 2.40315L8.98394 7.47772L3.22398 2.40308C2.99463 2.20103 2.64503 2.22323 2.44305 2.45243C2.24114 2.68171 2.26312 3.03131 2.49247 3.23336L8.61826 8.6303C8.72279 8.72237 8.85344 8.7684 8.98401 8.7684C9.11458 8.7684 9.24531 8.72236 9.34984 8.63023L15.4744 3.23329C15.7036 3.03131 15.7256 2.68164 15.5236 2.45236C15.3215 2.2233 14.972 2.20117 14.7426 2.40315Z" fill="black"/>
<path d="M16.215 0.0518799H1.75162C0.836431 0.0518799 0.0917969 0.79644 0.0917969 1.7117V10.4905C0.0917969 11.4057 0.836431 12.1503 1.75162 12.1503H16.215C17.1302 12.1503 17.8749 11.4057 17.8749 10.4905V1.7117C17.8749 0.796514 17.1302 0.0518799 16.215 0.0518799ZM16.7683 10.4905C16.7683 10.7955 16.5202 11.0438 16.215 11.0438H1.75162C1.44651 11.0438 1.19835 10.7955 1.19835 10.4905V1.7117C1.19835 1.40667 1.44651 1.15843 1.75162 1.15843H16.215C16.5202 1.15843 16.7683 1.40667 16.7683 1.7117V10.4905Z" fill="black"/>
</svg>
