<svg width="16" height="18" viewBox="0 0 16 18" fill="none" xmlns="http://www.w3.org/2000/svg">
<path d="M12.0362 12.4571C12.3986 12.4571 12.6923 12.1633 12.6923 11.801C12.6923 11.4386 12.3986 11.1449 12.0362 11.1449C11.6739 11.1449 11.3801 11.4386 11.3801 11.801C11.3801 12.1633 11.6739 12.4571 12.0362 12.4571Z" fill="black"/>
<path d="M14.9885 12.3258C15.3509 12.3258 15.6446 12.0321 15.6446 11.6697V9.24221C15.6446 7.79514 14.4673 6.61785 13.0203 6.61785H12.2317V4.30403C12.2317 2.17925 10.4658 0.450623 8.29522 0.450623C6.12462 0.450623 4.35869 2.17925 4.35869 4.30403V6.61785H3.5726C2.12553 6.61785 0.948242 7.79514 0.948242 9.24221V14.6221C0.948242 16.0692 2.12553 17.2465 3.5726 17.2465H13.0203C14.4673 17.2465 15.6446 16.0692 15.6446 14.6221C15.6446 14.2598 15.3509 13.966 14.9885 13.966C14.6262 13.966 14.3324 14.2598 14.3324 14.6221C14.3324 15.3457 13.7438 15.9343 13.0203 15.9343H3.5726C2.84906 15.9343 2.26042 15.3457 2.26042 14.6221V9.24221C2.26042 8.51867 2.84906 7.93003 3.5726 7.93003H13.0203C13.7438 7.93003 14.3324 8.51867 14.3324 9.24221V11.6697C14.3324 12.0321 14.6262 12.3258 14.9885 12.3258ZM10.9196 6.61785H5.67086V4.30403C5.67086 2.90279 6.84815 1.7628 8.29522 1.7628C9.74229 1.7628 10.9196 2.90279 10.9196 4.30403V6.61785Z" fill="black"/>
<path d="M7.0826 12.4571C7.44495 12.4571 7.73869 12.1633 7.73869 11.801C7.73869 11.4386 7.44495 11.1449 7.0826 11.1449C6.72025 11.1449 6.42651 11.4386 6.42651 11.801C6.42651 12.1633 6.72025 12.4571 7.0826 12.4571Z" fill="black"/>
<path d="M4.6224 12.4571C4.98474 12.4571 5.27849 12.1633 5.27849 11.801C5.27849 11.4386 4.98474 11.1449 4.6224 11.1449C4.26005 11.1449 3.96631 11.4386 3.96631 11.801C3.96631 12.1633 4.26005 12.4571 4.6224 12.4571Z" fill="black"/>
<path d="M9.54281 12.4571C9.90515 12.4571 10.1989 12.1633 10.1989 11.801C10.1989 11.4386 9.90515 11.1449 9.54281 11.1449C9.18046 11.1449 8.88672 11.4386 8.88672 11.801C8.88672 12.1633 9.18046 12.4571 9.54281 12.4571Z" fill="black"/>
</svg>
