<svg width="11" height="11" viewBox="0 0 11 11" fill="none" xmlns="http://www.w3.org/2000/svg">
<path d="M10.0747 1.24039C9.76979 0.93544 9.36436 0.767517 8.93315 0.767517C8.50193 0.767517 8.09651 0.93544 7.79156 1.24039L1.89502 7.13684C1.87594 7.15591 1.86107 7.17873 1.85122 7.20383L0.561014 10.501C0.532785 10.5733 0.549952 10.6554 0.604807 10.7103C0.642115 10.7477 0.692088 10.7675 0.742976 10.7675C0.766856 10.7675 0.790965 10.7632 0.814082 10.7541L4.11136 9.46388C4.13646 9.45404 4.1592 9.43916 4.17827 9.42009L4.73072 8.86765C4.80693 8.79143 4.80693 8.66776 4.73072 8.59146C4.65442 8.51517 4.53075 8.51517 4.45446 8.59146L4.04018 9.00581L2.30937 7.27501L6.9978 2.58652L8.7286 4.31732L5.55935 7.48657C5.48305 7.56287 5.48305 7.68654 5.55935 7.76283C5.63556 7.83905 5.75924 7.83905 5.83553 7.76283L10.0747 3.52364C10.3797 3.21869 10.5476 2.81326 10.5476 2.38197C10.5476 1.95076 10.3797 1.54533 10.0747 1.24039ZM2.1062 7.62428L3.69083 9.20891L2.32554 9.74319L1.57191 8.98956L2.1062 7.62428ZM1.41658 9.38667L1.92843 9.89861L1.08744 10.2277L1.41658 9.38667ZM7.27406 2.31033L7.6218 1.96259L9.35261 3.69331L9.00479 4.04106L7.27406 2.31033ZM9.79855 3.24738L9.6288 3.41713L7.89799 1.68633L8.06774 1.51657C8.29891 1.28548 8.60623 1.15814 8.93315 1.15814C9.26007 1.15814 9.56738 1.28548 9.79855 1.51665C10.0297 1.74774 10.157 2.05513 10.157 2.38197C10.157 2.70889 10.0297 3.0162 9.79855 3.24738Z" fill="#424242"/>
</svg>
