<svg width="41" height="42" viewBox="0 0 41 42" fill="none" xmlns="http://www.w3.org/2000/svg">
<path d="M5.60529 23.111C5.60529 22.5078 5.40424 21.9047 5.40424 21.1005C5.40424 20.2963 5.40424 19.6931 5.60529 19.09L1.38323 15.6721C0.981129 15.27 0.981129 14.8679 1.18218 14.4658L5.20319 7.42903C5.40424 7.22798 5.80626 7.02693 6.40948 7.22798L11.4357 9.23849C12.441 8.43428 13.6473 7.83113 14.8536 7.22798L15.6578 2.00067C15.4568 1.39752 16.06 0.995422 16.462 0.995422H24.504C24.9062 0.995422 25.5093 1.39752 25.5093 1.79962L26.3135 7.22798C27.5198 7.63008 28.525 8.43428 29.7313 9.23849L34.5565 7.22798C35.1597 7.02693 35.5618 7.22798 35.964 7.63008L39.985 14.6668C40.186 14.8679 39.985 15.471 39.5829 15.8731L35.3608 19.09C35.3608 19.6931 35.5619 20.2963 35.5619 21.1005C35.5619 21.9047 35.5619 22.5078 35.3608 23.111L39.5829 26.5288C39.985 26.931 39.985 27.333 39.7839 27.7352L35.7629 34.772C35.5619 34.973 35.1598 35.1741 34.5566 34.973L29.5304 32.9625C28.5251 33.7667 27.3188 34.3699 26.1125 34.973L25.3083 40.2003C25.3083 40.6024 24.9062 41.0045 24.303 41.0045H16.261C15.8589 41.0045 15.2558 40.6023 15.2558 40.2003L14.4516 34.973C13.2453 34.3699 12.039 33.7667 11.0337 32.9625L6.00747 34.973C5.60529 35.1741 5.00221 34.973 4.80108 34.5708L0.780079 27.5341C0.579025 27.132 0.579025 26.5288 0.981205 26.3278L5.60529 23.111ZM20.483 28.1372C24.303 28.1372 27.5198 24.9204 27.5198 21.1005C27.5198 17.2805 24.303 14.0637 20.483 14.0637C16.6631 14.0637 13.4462 17.2805 13.4462 21.1005C13.4462 24.9204 16.6631 28.1372 20.483 28.1372Z" fill="#5C9FD3"/>
</svg>
